<svg width="480" height="480" viewBox="0 0 480 480" xmlns="http://www.w3.org/2000/svg">
  <defs><clipPath id="clip"><rect x="0" y="0" width="480" height="480" rx="106"/></clipPath></defs>
  <rect x="0" y="0" width="480" height="480" rx="106" fill="#EFE9DC"/>
  <g clip-path="url(#clip)"><path d="M 306.8 220.8 L 306.6 222.8 L 306.6 224.8 L 306.3 226.7 L 305.8 228.7 L 304.9 230.4 L 303.6 232.0 L 302.1 233.4 L 300.7 234.7 L 299.4 236.1 L 298.5 237.6 L 297.8 239.5 L 297.3 241.8 L 296.7 244.3 L 295.9 246.8 L 294.7 249.0 L 293.0 250.7 L 290.9 251.7 L 288.5 251.8 L 286.0 251.2 L 283.6 250.1 L 281.4 249.1 L 279.4 248.4 L 277.4 248.2 L 275.4 248.9 L 273.2 250.1 L 270.7 251.7 L 267.9 253.1 L 265.0 253.9 L 262.3 253.9 L 260.0 252.7 L 258.4 250.5 L 257.6 247.4 L 257.6 243.9 L 258.1 240.4 L 258.9 237.2 L 259.4 234.6 L 259.4 232.7 L 258.7 231.3 L 257.2 230.3 L 255.1 229.3 L 252.8 228.2 L 250.5 226.7 L 248.6 225.0 L 247.4 223.0 L 246.8 220.8 L 246.8 218.6 L 247.2 216.4 L 247.7 214.3 L 248.1 212.1 L 248.5 209.9 L 248.8 207.6 L 249.2 205.3 L 249.8 202.9 L 250.9 200.8 L 252.5 199.1 L 254.6 197.8 L 257.1 197.2 L 259.8 197.0 L 262.4 197.0 L 264.7 197.1 L 266.7 196.8 L 268.4 196.0 L 269.9 194.7 L 271.5 192.9 L 273.2 191.1 L 275.1 189.4 L 277.3 188.4 L 279.5 188.3 L 281.7 189.2 L 283.7 191.0 L 285.2 193.4 L 286.5 196.0 L 287.5 198.3 L 288.6 200.0 L 290.0 200.8 L 291.9 200.7 L 294.5 200.1 L 297.7 199.3 L 301.3 198.7 L 304.8 198.6 L 307.9 199.3 L 310.3 200.9 L 311.6 203.1 L 312.0 205.8 L 311.5 208.8 L 310.4 211.6 L 309.2 214.3 L 308.1 216.6 L 307.2 218.8 L 306.8 220.8 Z" fill="none" stroke="#DCD2BE" stroke-width="2" opacity="0.6"/>
  <path d="M 337.2 220.8 L 334.1 224.7 L 331.6 228.3 L 329.9 231.7 L 329.1 235.3 L 328.9 239.2 L 329.0 243.3 L 328.9 247.7 L 328.4 252.0 L 327.0 256.1 L 324.8 259.8 L 322.0 262.9 L 318.6 265.4 L 315.0 267.6 L 311.3 269.6 L 307.8 271.7 L 304.3 273.9 L 300.8 276.3 L 297.2 278.7 L 293.4 280.9 L 289.3 282.7 L 285.0 283.7 L 280.6 283.8 L 276.2 283.2 L 272.0 281.9 L 267.9 280.4 L 263.9 278.8 L 260.0 277.5 L 255.9 276.4 L 251.7 275.5 L 247.3 274.6 L 243.0 273.3 L 238.9 271.4 L 235.4 268.6 L 232.8 264.9 L 231.2 260.4 L 230.6 255.6 L 230.7 250.6 L 231.2 245.9 L 231.5 241.7 L 231.2 238.0 L 229.9 234.7 L 227.6 231.6 L 224.4 228.4 L 220.7 224.8 L 217.2 220.8 L 214.4 216.3 L 212.7 211.6 L 212.5 206.8 L 213.7 202.2 L 216.1 198.1 L 219.4 194.5 L 223.0 191.3 L 226.6 188.4 L 229.9 185.6 L 232.9 182.6 L 235.6 179.5 L 238.3 176.2 L 241.1 173.0 L 244.2 170.1 L 247.8 167.7 L 251.7 166.0 L 255.9 165.0 L 260.1 164.6 L 264.4 164.5 L 268.5 164.5 L 272.5 164.3 L 276.4 163.9 L 280.4 163.3 L 284.5 162.6 L 288.7 162.2 L 293.0 162.4 L 297.1 163.3 L 300.9 165.1 L 304.3 167.7 L 307.3 170.7 L 310.1 173.8 L 312.8 176.8 L 315.7 179.4 L 319.1 181.5 L 323.1 183.3 L 327.6 185.0 L 332.5 187.0 L 337.1 189.6 L 341.1 192.9 L 343.9 196.9 L 345.2 201.6 L 344.9 206.7 L 343.2 211.7 L 340.4 216.5 L 337.2 220.8 Z" fill="none" stroke="#DCD2BE" stroke-width="2" opacity="0.6"/>
  <path d="M 368.8 220.8 L 366.7 227.0 L 365.0 233.0 L 363.9 239.0 L 363.3 245.1 L 362.8 251.5 L 362.0 258.0 L 360.5 264.4 L 358.0 270.5 L 354.4 276.0 L 349.8 280.7 L 344.4 284.5 L 338.6 287.7 L 332.8 290.4 L 327.0 292.9 L 321.4 295.4 L 316.0 298.0 L 310.7 300.7 L 305.2 303.3 L 299.5 305.6 L 293.7 307.3 L 287.6 308.2 L 281.5 308.3 L 275.4 307.8 L 269.3 307.0 L 263.4 306.0 L 257.3 305.3 L 251.1 304.9 L 244.5 304.8 L 237.6 304.5 L 230.4 303.9 L 223.4 302.3 L 216.9 299.5 L 211.3 295.3 L 207.0 289.8 L 204.1 283.2 L 202.5 275.9 L 202.0 268.6 L 201.9 261.5 L 201.8 254.9 L 201.2 248.9 L 199.8 243.3 L 197.5 238.0 L 194.5 232.6 L 191.5 226.9 L 188.8 220.8 L 187.2 214.4 L 186.8 207.9 L 187.9 201.6 L 190.3 195.5 L 193.7 190.0 L 197.6 184.8 L 201.6 179.9 L 205.3 175.1 L 208.8 170.2 L 211.9 165.0 L 214.9 159.5 L 218.2 153.9 L 221.9 148.5 L 226.4 143.6 L 231.4 139.5 L 237.1 136.2 L 243.3 133.8 L 249.6 132.1 L 256.0 131.0 L 262.4 130.0 L 268.8 129.2 L 275.2 128.4 L 281.6 127.9 L 288.2 128.0 L 294.6 128.8 L 300.9 130.7 L 306.7 133.7 L 311.9 137.9 L 316.5 142.8 L 320.4 148.0 L 324.1 153.1 L 327.7 157.7 L 331.8 161.5 L 336.5 164.7 L 342.0 167.5 L 348.1 170.1 L 354.6 173.2 L 360.8 177.0 L 366.3 181.7 L 370.4 187.3 L 372.8 193.7 L 373.5 200.6 L 372.8 207.5 L 371.0 214.3 L 368.8 220.8 Z" fill="none" stroke="#DCD2BE" stroke-width="2" opacity="0.6"/>
  <path d="M 400.6 220.8 L 400.6 229.3 L 399.0 237.8 L 396.4 245.9 L 393.0 253.7 L 389.4 261.2 L 385.8 268.6 L 382.4 276.1 L 379.0 283.7 L 375.5 291.4 L 371.6 299.0 L 366.8 306.2 L 361.3 312.8 L 354.8 318.6 L 347.6 323.4 L 339.9 327.3 L 331.9 330.4 L 323.8 333.2 L 315.8 335.8 L 307.7 338.3 L 299.6 340.7 L 291.2 342.8 L 282.7 344.2 L 274.1 344.4 L 265.5 343.3 L 257.3 340.6 L 249.6 336.5 L 242.5 331.3 L 236.0 325.7 L 230.0 320.1 L 224.0 315.1 L 217.7 310.8 L 210.7 307.4 L 203.0 304.5 L 194.7 301.7 L 186.0 298.3 L 177.6 294.0 L 170.1 288.5 L 164.0 281.6 L 159.8 273.6 L 157.4 264.8 L 156.7 255.7 L 157.2 246.6 L 158.4 237.7 L 159.6 229.1 L 160.6 220.8 L 161.1 212.6 L 161.4 204.4 L 161.6 196.0 L 162.3 187.5 L 163.8 179.1 L 166.5 171.0 L 170.5 163.4 L 175.5 156.5 L 181.4 150.3 L 187.7 144.7 L 194.2 139.5 L 200.7 134.5 L 207.0 129.4 L 213.4 124.4 L 219.9 119.4 L 226.7 114.7 L 233.9 110.7 L 241.6 107.6 L 249.6 105.5 L 257.9 104.4 L 266.1 104.1 L 274.3 104.3 L 282.5 104.6 L 290.6 104.6 L 299.0 104.2 L 307.6 103.6 L 316.6 103.1 L 325.9 103.2 L 335.2 104.4 L 344.0 107.2 L 351.9 111.9 L 358.5 118.3 L 363.6 126.2 L 367.3 134.9 L 369.9 144.0 L 371.8 153.0 L 373.6 161.3 L 375.9 168.9 L 379.0 176.0 L 382.9 182.8 L 387.4 189.5 L 392.0 196.7 L 396.0 204.3 L 399.0 212.4 L 400.6 220.8 Z" fill="none" stroke="#DCD2BE" stroke-width="2" opacity="0.6"/>
  <path d="M 422.5 220.8 L 423.4 230.9 L 424.9 241.4 L 426.6 252.3 L 427.8 263.6 L 427.8 275.2 L 426.0 286.5 L 422.0 297.2 L 415.8 306.7 L 407.7 314.7 L 398.1 321.2 L 387.7 326.4 L 377.3 330.6 L 367.2 334.4 L 357.7 338.3 L 348.7 342.6 L 340.2 347.5 L 331.7 352.7 L 322.9 357.9 L 313.8 362.6 L 304.1 366.4 L 294.0 368.9 L 283.6 370.1 L 273.2 370.0 L 262.8 369.0 L 252.6 367.3 L 242.4 365.3 L 232.2 363.1 L 221.9 360.6 L 211.6 357.7 L 201.5 354.0 L 191.7 349.3 L 182.7 343.3 L 174.6 336.1 L 167.6 327.8 L 161.8 318.7 L 156.8 309.2 L 152.3 299.6 L 147.9 290.2 L 143.4 280.9 L 138.6 271.7 L 133.7 262.3 L 129.1 252.5 L 125.3 242.3 L 122.9 231.7 L 122.5 220.8 L 124.1 210.0 L 127.8 199.6 L 133.1 189.9 L 139.4 180.9 L 145.9 172.6 L 151.9 164.5 L 157.2 156.3 L 161.4 147.7 L 165.0 138.4 L 168.3 128.4 L 171.9 118.0 L 176.5 107.7 L 182.5 98.0 L 189.9 89.6 L 198.7 82.8 L 208.7 77.8 L 219.3 74.5 L 230.2 72.6 L 241.2 71.5 L 252.0 71.0 L 262.6 70.6 L 273.1 70.3 L 283.7 70.2 L 294.2 70.6 L 304.7 71.9 L 314.9 74.2 L 324.9 77.8 L 334.3 82.5 L 343.1 88.0 L 351.5 94.2 L 359.5 100.6 L 367.4 106.9 L 375.3 113.1 L 383.4 119.4 L 391.6 125.8 L 399.5 132.8 L 406.7 140.6 L 412.8 149.3 L 417.5 158.9 L 420.6 169.1 L 422.1 179.6 L 422.5 190.2 L 422.4 200.6 L 422.2 210.7 L 422.5 220.8 Z" fill="none" stroke="#DCD2BE" stroke-width="2" opacity="0.6"/>
  <path d="M 458.0 220.8 L 462.5 233.7 L 465.6 247.1 L 466.4 260.8 L 464.6 274.2 L 460.1 286.9 L 453.2 298.6 L 444.4 309.1 L 434.6 318.4 L 424.4 326.9 L 414.3 334.9 L 404.7 342.8 L 395.5 350.8 L 386.4 359.0 L 377.1 367.1 L 367.3 374.8 L 356.9 381.6 L 345.6 387.2 L 333.8 391.3 L 321.6 394.0 L 309.2 395.5 L 296.8 396.1 L 284.5 396.2 L 272.3 396.2 L 260.0 396.0 L 247.6 395.6 L 235.1 394.6 L 222.6 392.7 L 210.3 389.4 L 198.5 384.7 L 187.4 378.4 L 177.2 370.8 L 167.8 362.3 L 159.0 353.4 L 150.5 344.3 L 142.0 335.3 L 133.2 326.3 L 124.2 317.2 L 115.2 307.6 L 106.8 297.2 L 99.6 285.9 L 94.4 273.6 L 91.6 260.5 L 91.5 247.1 L 93.8 233.7 L 98.0 220.8 L 103.4 208.6 L 109.1 197.0 L 114.3 185.9 L 118.6 175.0 L 121.8 163.8 L 124.3 152.2 L 126.6 140.1 L 129.3 127.6 L 133.1 115.3 L 138.6 103.5 L 145.7 92.7 L 154.6 83.3 L 164.7 75.3 L 175.8 68.7 L 187.3 63.1 L 199.0 58.1 L 210.8 53.4 L 222.6 49.0 L 234.5 44.7 L 246.7 41.0 L 259.2 38.1 L 272.0 36.5 L 284.8 36.4 L 297.6 38.0 L 310.1 41.0 L 322.2 45.3 L 333.8 50.3 L 345.1 55.7 L 356.3 61.1 L 367.4 66.6 L 378.5 72.4 L 389.5 78.7 L 399.9 85.8 L 409.5 94.2 L 417.8 103.8 L 424.5 114.7 L 429.5 126.4 L 433.1 138.6 L 435.7 150.8 L 437.9 162.7 L 440.5 174.3 L 443.7 185.7 L 448.0 197.0 L 452.9 208.6 L 458.0 220.8 Z" fill="none" stroke="#DCD2BE" stroke-width="2" opacity="0.6"/>
  <path d="M 485.0 220.8 L 483.7 235.2 L 481.0 249.3 L 477.0 263.0 L 472.1 276.3 L 466.9 289.4 L 461.6 302.4 L 456.6 315.5 L 451.7 329.1 L 446.6 343.0 L 440.9 357.1 L 433.9 371.0 L 425.4 384.0 L 414.9 395.5 L 402.5 404.8 L 388.7 411.8 L 373.8 416.4 L 358.5 419.1 L 343.3 420.4 L 328.4 421.3 L 313.9 422.2 L 299.7 423.7 L 285.6 425.8 L 271.2 428.2 L 256.4 430.3 L 241.3 431.2 L 226.2 430.3 L 211.4 427.1 L 197.4 421.4 L 184.5 413.4 L 172.8 403.6 L 162.4 392.8 L 152.8 381.5 L 143.7 370.4 L 134.6 359.6 L 125.3 349.2 L 115.8 339.0 L 106.1 328.5 L 96.7 317.4 L 88.2 305.5 L 80.8 292.7 L 74.9 279.2 L 70.6 265.0 L 67.7 250.4 L 65.9 235.7 L 65.0 220.8 L 64.7 205.9 L 65.0 190.8 L 66.1 175.7 L 68.4 160.6 L 72.2 145.8 L 77.9 131.5 L 85.7 118.4 L 95.5 106.5 L 106.8 96.1 L 119.1 87.2 L 131.8 79.2 L 144.3 71.9 L 156.3 64.5 L 167.7 56.7 L 178.7 48.1 L 189.7 38.9 L 201.2 29.7 L 213.5 21.0 L 226.8 13.7 L 241.0 8.6 L 255.8 6.0 L 270.9 6.1 L 285.8 8.5 L 300.3 12.6 L 314.2 17.6 L 327.8 22.8 L 341.2 27.7 L 354.7 32.0 L 368.6 35.9 L 382.8 39.9 L 397.2 44.6 L 411.4 50.6 L 424.7 58.3 L 436.7 67.9 L 447.1 79.3 L 455.5 92.1 L 462.3 105.9 L 467.6 120.2 L 471.8 134.7 L 475.4 149.1 L 478.6 163.4 L 481.4 177.6 L 483.6 192.0 L 484.9 206.4 L 485.0 220.8 Z" fill="none" stroke="#DCD2BE" stroke-width="2" opacity="0.6"/>
  <path d="M 520.0 220.8 L 520.9 237.8 L 519.9 254.7 L 516.9 271.5 L 511.9 287.8 L 505.4 303.4 L 497.9 318.5 L 489.8 333.2 L 481.5 347.7 L 473.0 362.2 L 464.2 376.7 L 454.8 391.1 L 444.2 405.0 L 432.2 417.6 L 418.4 428.3 L 403.0 436.6 L 386.4 442.2 L 369.1 445.2 L 351.6 446.0 L 334.4 445.4 L 317.8 444.3 L 301.8 443.7 L 286.2 444.0 L 270.6 445.4 L 254.6 447.7 L 238.0 450.1 L 220.8 451.7 L 203.4 451.8 L 186.0 449.4 L 169.4 444.4 L 153.8 436.6 L 139.6 426.6 L 126.8 414.9 L 115.2 402.1 L 104.4 388.8 L 94.1 375.4 L 84.1 362.0 L 74.3 348.3 L 65.0 334.3 L 56.5 319.6 L 49.2 304.2 L 43.7 288.1 L 40.2 271.4 L 38.6 254.5 L 38.7 237.6 L 40.0 220.8 L 42.1 204.3 L 44.6 187.9 L 47.4 171.7 L 50.5 155.5 L 54.4 139.3 L 59.4 123.3 L 66.0 107.8 L 74.4 93.3 L 84.7 80.0 L 96.5 68.2 L 109.5 57.7 L 123.0 48.3 L 136.6 39.3 L 150.0 30.4 L 163.0 21.0 L 176.0 10.8 L 189.2 0.1 L 203.2 -10.6 L 218.3 -20.4 L 234.5 -28.4 L 251.7 -33.7 L 269.4 -35.7 L 287.3 -34.3 L 304.7 -29.7 L 321.3 -22.6 L 336.9 -14.0 L 351.7 -4.8 L 365.8 4.4 L 379.8 12.9 L 393.8 20.9 L 408.0 28.7 L 422.3 36.6 L 436.3 45.4 L 449.7 55.4 L 461.8 66.9 L 472.4 79.8 L 481.4 94.0 L 488.8 108.9 L 495.0 124.4 L 500.3 140.0 L 505.2 155.8 L 509.7 171.6 L 513.9 187.7 L 517.5 204.1 L 520.0 220.8 Z" fill="none" stroke="#DCD2BE" stroke-width="2" opacity="0.6"/>
  <path d="M 561.0 220.8 L 562.9 240.7 L 561.7 260.6 L 557.1 280.0 L 549.1 298.4 L 538.5 315.5 L 526.2 331.1 L 513.0 345.6 L 500.0 359.3 L 487.6 372.8 L 476.0 386.6 L 464.9 400.9 L 453.9 415.7 L 442.2 430.4 L 429.3 444.5 L 414.8 457.0 L 398.7 467.4 L 381.1 475.1 L 362.7 480.2 L 343.7 482.8 L 324.8 483.8 L 306.0 483.7 L 287.6 483.3 L 269.2 482.9 L 250.9 482.7 L 232.3 482.3 L 213.4 481.3 L 194.5 479.1 L 175.7 475.0 L 157.4 468.9 L 140.0 460.5 L 123.7 450.2 L 108.5 438.3 L 94.4 425.2 L 81.0 411.4 L 68.4 397.0 L 56.3 382.2 L 45.0 366.6 L 34.9 350.3 L 26.4 333.0 L 19.9 314.9 L 16.0 296.1 L 14.5 276.9 L 15.3 257.8 L 17.7 239.0 L 21.0 220.8 L 24.3 203.0 L 27.0 185.5 L 28.9 167.8 L 30.0 149.6 L 31.1 130.8 L 32.8 111.5 L 36.2 92.0 L 42.0 73.1 L 50.7 55.4 L 62.3 39.5 L 76.5 25.8 L 92.5 14.4 L 109.7 4.9 L 127.3 -3.2 L 144.8 -10.6 L 161.9 -18.0 L 178.9 -25.6 L 195.8 -33.4 L 213.1 -41.1 L 231.0 -48.0 L 249.6 -53.3 L 268.7 -56.4 L 288.1 -56.7 L 307.3 -54.3 L 326.1 -49.4 L 344.1 -42.6 L 361.3 -34.5 L 378.0 -25.6 L 394.1 -16.5 L 410.0 -7.2 L 425.7 2.5 L 441.0 12.7 L 455.7 23.9 L 469.5 36.3 L 482.0 49.9 L 493.2 64.7 L 503.0 80.5 L 511.7 96.8 L 519.7 113.4 L 527.4 130.2 L 535.0 147.2 L 542.7 164.6 L 550.0 182.6 L 556.4 201.4 L 561.0 220.8 Z" fill="none" stroke="#DCD2BE" stroke-width="2" opacity="0.6"/>
  <path d="M 576.9 220.8 L 574.9 241.5 L 572.2 262.1 L 568.4 282.4 L 563.1 302.4 L 556.1 321.9 L 547.2 340.5 L 536.8 358.2 L 525.2 375.0 L 512.8 391.1 L 500.2 406.9 L 487.4 422.6 L 474.4 438.5 L 461.0 454.5 L 446.6 470.2 L 431.0 485.1 L 413.7 498.2 L 394.8 508.9 L 374.5 516.6 L 353.3 521.1 L 331.6 522.5 L 310.0 521.6 L 288.8 519.1 L 268.1 516.1 L 247.7 513.1 L 227.3 510.7 L 206.6 508.6 L 185.6 506.3 L 164.4 503.0 L 143.3 497.9 L 122.9 490.1 L 104.1 479.3 L 87.2 465.5 L 72.8 449.1 L 60.8 430.9 L 50.8 411.8 L 42.2 392.4 L 34.1 373.4 L 26.1 354.9 L 17.7 336.9 L 8.9 318.9 L 0.1 300.6 L -8.2 281.7 L -15.2 262.1 L -20.3 241.7 L -23.1 220.8 L -23.6 199.7 L -21.9 178.6 L -18.5 157.7 L -13.6 137.1 L -7.8 116.6 L -0.9 96.4 L 7.0 76.5 L 16.3 57.0 L 27.4 38.5 L 40.5 21.2 L 55.8 5.8 L 72.9 -7.4 L 91.6 -18.3 L 111.1 -27.2 L 131.0 -34.5 L 150.7 -41.0 L 170.1 -47.4 L 189.1 -54.0 L 208.1 -61.1 L 227.4 -68.4 L 247.3 -75.1 L 267.9 -80.5 L 289.0 -83.6 L 310.4 -83.6 L 331.5 -80.2 L 351.8 -73.6 L 371.0 -64.3 L 389.1 -53.3 L 406.3 -41.4 L 422.9 -29.5 L 439.6 -18.1 L 456.6 -7.3 L 474.3 3.2 L 492.4 14.1 L 510.4 26.1 L 527.6 39.8 L 543.0 55.5 L 555.9 73.3 L 565.8 92.8 L 572.7 113.7 L 576.8 135.2 L 578.7 157.0 L 579.0 178.6 L 578.2 199.8 L 576.9 220.8 Z" fill="none" stroke="#DCD2BE" stroke-width="2" opacity="0.6"/></g>
  <path d="M 124.80 115.20 L 124.80 345.60 L 124.80 345.60 L 124.96 351.63 L 125.43 357.64 L 126.22 363.62 L 127.32 369.55 L 128.73 375.42 L 130.44 381.20 L 132.45 386.88 L 134.76 392.46 L 137.36 397.90 L 140.23 403.20 L 143.39 408.34 L 146.80 413.31 L 150.47 418.10 L 154.39 422.68 L 158.54 427.06 L 162.92 431.21 L 167.50 435.13 L 172.29 438.80 L 177.26 442.21 L 182.40 445.37 L 187.70 448.24 L 193.14 450.84 L 198.72 453.15 L 204.40 455.16 L 210.18 456.87 L 216.05 458.28 L 221.98 459.38 L 227.96 460.17 L 233.97 460.64 L 240.00 460.80 L 246.03 460.64 L 252.04 460.17 L 258.02 459.38 L 263.95 458.28 L 269.82 456.87 L 275.60 455.16 L 281.28 453.15 L 286.86 450.84 L 292.30 448.24 L 297.60 445.37 L 302.74 442.21 L 307.71 438.80 L 312.50 435.13 L 317.08 431.21 L 321.46 427.06 L 325.61 422.68 L 329.53 418.10 L 333.20 413.31 L 336.61 408.34 L 339.77 403.20 L 342.64 397.90 L 345.24 392.46 L 347.55 386.88 L 349.56 381.20 L 351.27 375.42 L 352.68 369.55 L 353.78 363.62 L 354.57 357.64 L 355.04 351.63 L 355.20 345.60 L 355.20 115.20 L 300.00 115.20 L 300.00 345.60 L 300.00 345.60 L 299.92 348.74 L 299.67 351.87 L 299.26 354.99 L 298.69 358.07 L 297.96 361.13 L 297.06 364.14 L 296.01 367.10 L 294.81 370.00 L 293.46 372.84 L 291.96 375.60 L 290.32 378.28 L 288.54 380.87 L 286.63 383.36 L 284.59 385.75 L 282.43 388.03 L 280.15 390.19 L 277.76 392.23 L 275.27 394.14 L 272.68 395.92 L 270.00 397.56 L 267.24 399.06 L 264.40 400.41 L 261.50 401.61 L 258.54 402.66 L 255.53 403.56 L 252.47 404.29 L 249.39 404.86 L 246.27 405.27 L 243.14 405.52 L 240.00 405.60 L 236.86 405.52 L 233.73 405.27 L 230.61 404.86 L 227.53 404.29 L 224.47 403.56 L 221.46 402.66 L 218.50 401.61 L 215.60 400.41 L 212.76 399.06 L 210.00 397.56 L 207.32 395.92 L 204.73 394.14 L 202.24 392.23 L 199.85 390.19 L 197.57 388.03 L 195.41 385.75 L 193.37 383.36 L 191.46 380.87 L 189.68 378.28 L 188.04 375.60 L 186.54 372.84 L 185.19 370.00 L 183.99 367.10 L 182.94 364.14 L 182.04 361.13 L 181.31 358.07 L 180.74 354.99 L 180.33 351.87 L 180.08 348.74 L 180.00 345.60 L 180.00 115.20 Z" fill="#463F35"/>
  <path d="M 202.80 106.80 C 202.80 65.73 219.47 69.60 240.00 69.60 C 260.53 69.60 277.20 65.73 277.20 106.80 C 277.20 122.42 258.60 134.70 240.00 182.40 C 221.40 134.70 202.80 122.42 202.80 106.80 Z" fill="#8C7A5E"/>
  <circle cx="240.0" cy="106.8" r="22.3" fill="#EFE9DC"/>
</svg>